<!-- icon666.com - MILLIONS vector ICONS FREE --><svg version="1.1" id="Capa_1" xmlns="http://www.w3.org/2000/svg" xmlns:xlink="http://www.w3.org/1999/xlink" x="0px" y="0px" viewBox="0 0 512 512" style="enable-background:new 0 0 512 512;" xml:space="preserve"><g><g><path d="M493.519,211.306c-11.937-11.936-27.807-18.509-44.727-18.509l-233.002-0.003l28.465-28.464 c11.957-11.941,18.542-27.823,18.542-44.722c0-34.849-28.354-63.2-63.219-63.2c-16.874,0-32.741,6.573-44.681,18.512 L18.601,211.22c-8.841,8.806-14.828,19.891-17.315,32.056C0.432,247.441,0,251.722,0,256.001c0,16.929,6.607,32.832,18.583,44.761 l136.288,136.287c11.939,11.958,27.822,18.543,44.723,18.543c34.849,0,63.201-28.353,63.203-63.201 c0.002-16.879-6.571-32.752-18.512-44.696l-28.493-28.493h233.034c16.886,0,32.76-6.574,44.694-18.513 C518.16,276.045,518.16,235.949,493.519,211.306z" fill="#000000" style="fill: rgb(255, 255, 255);"></path></g></g></svg>