<!-- icon666.com - MILLIONS vector ICONS FREE --><svg xmlns="http://www.w3.org/2000/svg" xmlns:xlink="http://www.w3.org/1999/xlink" version="1.1" id="Capa_1" x="0px" y="0px" viewBox="0 0 513.515 513.515" style="enable-background:new 0 0 513.515 513.515;" xml:space="preserve"><g><g id="object_38_"><g><path d="M437.776,75.74C338.221-24.652,176.132-25.33,75.74,74.224S-25.33,335.868,74.224,436.26 c0.503,0.507,1.008,1.013,1.516,1.516c99.555,100.392,261.644,101.07,362.036,1.515s101.07-261.644,1.515-362.035 C438.788,76.748,438.283,76.243,437.776,75.74z M256.757,477.414c-121.669,0-220.655-98.986-220.655-220.655 S135.088,36.104,256.757,36.104s220.655,98.986,220.655,220.655S378.426,477.414,256.757,477.414z" fill="#000000" style="fill: rgb(255, 255, 255);"></path></g><g><path d="M296.718,359.837h-22.289V208.719c0-9.76-7.912-17.673-17.673-17.673l0,0h-39.961c-9.76,0-17.673,7.912-17.673,17.673 c0,9.76,7.912,17.673,17.673,17.673l0,0h22.289v133.445h-22.289c-9.76,0-17.673,7.912-17.673,17.673 c0,9.76,7.912,17.673,17.673,17.673l0,0h79.922c9.76,0,17.673-7.912,17.673-17.673 C314.391,367.749,306.478,359.837,296.718,359.837L296.718,359.837z" fill="#000000" style="fill: rgb(255, 255, 255);"></path></g><g><path d="M256.757,173.012c9.76,0,17.673-7.912,17.673-17.673l0,0v-19.331c0-9.76-7.912-17.673-17.673-17.673 c-9.76,0-17.673,7.912-17.673,17.673v19.331C239.084,165.1,246.997,173.012,256.757,173.012L256.757,173.012z" fill="#000000" style="fill: rgb(255, 255, 255);"></path></g></g></g></svg>