<svg width="24" height="23" viewBox="0 0 24 23" fill="none" xmlns="http://www.w3.org/2000/svg">
<path d="M23.4944 20.0827C23.8163 20.3849 23.9971 20.7947 23.9971 21.2221C23.9971 21.6495 23.8163 22.0593 23.4944 22.3615C23.1724 22.6637 22.7358 22.8335 22.2805 22.8335C21.8252 22.8335 21.3886 22.6637 21.0667 22.3615L12 13.8481L2.93047 22.3588C2.60854 22.661 2.17191 22.8308 1.71663 22.8308C1.26135 22.8308 0.82472 22.661 0.502789 22.3588C0.180859 22.0566 4.79714e-09 21.6468 0 21.2194C-4.79714e-09 20.7921 0.180859 20.3822 0.502789 20.08L9.57232 11.5693L0.505645 3.05584C0.183715 2.75365 0.00285616 2.34379 0.00285616 1.91642C0.00285617 1.48906 0.183715 1.0792 0.505645 0.777012C0.827576 0.474821 1.26421 0.305051 1.71949 0.305051C2.17476 0.305051 2.6114 0.474821 2.93333 0.777012L12 9.29043L21.0695 0.775671C21.3915 0.47348 21.8281 0.303711 22.2834 0.303711C22.7386 0.303711 23.1753 0.47348 23.4972 0.775671C23.8191 1.07786 24 1.48772 24 1.91508C24 2.34245 23.8191 2.75231 23.4972 3.0545L14.4277 11.5693L23.4944 20.0827Z" fill="#11121C"/>
</svg>
